<?xml version="1.0" encoding="UTF-8" standalone="no"?>
<!DOCTYPE svg PUBLIC "-//W3C//DTD SVG 1.1//EN" "http://www.w3.org/Graphics/SVG/1.1/DTD/svg11.dtd">
<svg xmlns="http://www.w3.org/2000/svg" version="1.0" width="512.000000pt" height="512.000000pt" viewBox="0 0 512.000000 512.000000" preserveAspectRatio="xMidYMid meet">
    <g transform="translate(0.000000,512.000000) scale(0.100000,-0.100000)" fill="#000000" stroke="none">
        <path d="M2330 5110 c-494 -48 -950 -230 -1350 -538 -195 -150 -448 -432 -594 -662 -63 -99 -186 -351 -230 -471 -51 -139 -103 -344 -128 -504 -31 -200 -31 -550 0 -750 43 -273 114 -500 237 -750 132 -269 269 -460 489 -681 221 -220 412 -357 681 -489 247 -121 469 -192 745 -237 195 -31 565 -31 760 0 276 45 498 116 745 237 269 132 460 269 681 489 220 221 357 412 489 681 88 179 132 296 180 476 63 240 78 371 78 649 0 278 -15 409 -78 649 -48 180 -92 297 -180 476 -132 269 -269 460 -489 681 -221 220 -412 357 -681 489 -246 121 -474 193 -740 235 -147 23 -475 34 -615 20z m555 -267 c747 -106 1409 -585 1740 -1258 166 -338 238 -650 238 -1025 0 -135 -5 -232 -17 -315 -153 -1033 -938 -1818 -1971 -1971 -164 -24 -466 -24 -630 0 -940 139 -1688 809 -1920 1720 -52 204 -68 342 -68 566 0 224 16 362 68 566 77 300 200 559 385 809 395 532 1001 869 1665 925 130 11 371 3 510 -17z"/>
        <path d="M720 2605 l0 -125 400 0 400 0 0 125 0 125 -400 0 -400 0 0 -125z"/>
        <path d="M3580 2605 l0 -125 400 0 400 0 0 125 0 125 -400 0 -400 0 0 -125z"/>
        <path d="M1870 1295 l0 -125 690 0 690 0 0 125 0 125 -690 0 -690 0 0 -125z"/>
    </g>
</svg>