<?xml version="1.0" encoding="UTF-8" standalone="no"?>
<svg width="456" height="456" viewBox="-122 -122 500 500" version="1.1" xmlns="http://www.w3.org/2000/svg">
    <g transform="translate(0.000000,256.000000) scale(0.100000,-0.100000)" fill="#000000" stroke="none">
        <path d="M1065 2541 c-266 -50 -494 -168 -676 -350 -217 -216 -343 -474 -380 -774 -21 -169 9 -415 70 -578 139 -368 438 -652 816 -777 131 -43 222 -57 385 -57 163 0 254 14 385 57 435 144 737 468 857 918 29 108 31 126 31 295 0 192 -8 246 -58 400 -105 322 -348 603 -649 749 -189 91 -324 124 -541 131 -110 4 -161 1 -240 -14z m475 -140 c222 -59 373 -141 531 -289 245 -230 370 -539 356 -882 -24 -616 -529 -1100 -1147 -1100 -235 0 -454 68 -653 201 -86 59 -227 198 -288 286 -69 100 -143 258 -176 378 -26 93 -28 113 -28 285 0 179 1 189 32 298 18 62 48 145 67 185 160 337 478 583 843 652 111 21 362 14 463 -14z"/>
        <path d="M360 1305 l0 -65 200 0 200 0 0 65 0 65 -200 0 -200 0 0 -65z"/>
        <path d="M1790 1305 l0 -65 200 0 200 0 0 65 0 65 -200 0 -200 0 0 -65z"/>
        <path d="M930 645 l0 -65 350 0 350 0 0 65 0 65 -350 0 -350 0 0 -65z"/>
    </g>
</svg>